<svg xmlns="http://www.w3.org/2000/svg" width="1200" height="620" viewBox="0 0 1200 620">
<rect width="100%" height="100%" fill="#fbfaf7"/>
<style>text{font-family:Arial,sans-serif;fill:#17212b}.title{font-size:22px;font-weight:700}.small{font-size:12px}.label{font-size:12px;font-weight:600}</style>
<text x="42" y="42" class="title">Public evidence records recovered per benchmark variant</text>
<text x="42" y="66" class="small">Log₂(count + 1) scale; exact record counts are printed above bars.</text>
<line x1="95" y1="425" x2="1165" y2="425" stroke="#65727e"/>
<line x1="90" y1="425.0" x2="1165" y2="425.0" stroke="#d8dee3"/>
<text x="81" y="429.0" text-anchor="end" class="small">0</text>
<line x1="90" y1="380.9" x2="1165" y2="380.9" stroke="#d8dee3"/>
<text x="81" y="384.9" text-anchor="end" class="small">1</text>
<line x1="90" y1="322.7" x2="1165" y2="322.7" stroke="#d8dee3"/>
<text x="81" y="326.7" text-anchor="end" class="small">4</text>
<line x1="90" y1="244.9" x2="1165" y2="244.9" stroke="#d8dee3"/>
<text x="81" y="248.9" text-anchor="end" class="small">16</text>
<line x1="90" y1="159.6" x2="1165" y2="159.6" stroke="#d8dee3"/>
<text x="81" y="163.6" text-anchor="end" class="small">64</text>
<line x1="90" y1="116.0" x2="1165" y2="116.0" stroke="#d8dee3"/>
<text x="81" y="120.0" text-anchor="end" class="small">128</text>
<rect x="117.3" y="380.9" width="61.5" height="44.1" rx="3" fill="#287d8e"/>
<text x="148.0" y="372.9" text-anchor="middle" class="label">1</text>
<text x="148.0" y="447" text-anchor="end" transform="rotate(-38 148.0 447)" class="small">BRCA1-c.68_69del</text>
<rect x="223.3" y="380.9" width="61.5" height="44.1" rx="3" fill="#287d8e"/>
<text x="254.0" y="372.9" text-anchor="middle" class="label">1</text>
<text x="254.0" y="447" text-anchor="end" transform="rotate(-38 254.0 447)" class="small">BRCA2-c.5946del</text>
<rect x="329.3" y="380.9" width="61.5" height="44.1" rx="3" fill="#287d8e"/>
<text x="360.0" y="372.9" text-anchor="middle" class="label">1</text>
<text x="360.0" y="447" text-anchor="end" transform="rotate(-38 360.0 447)" class="small">TP53-p.Arg273His</text>
<rect x="435.3" y="380.9" width="61.5" height="44.1" rx="3" fill="#c75b39"/>
<text x="466.0" y="372.9" text-anchor="middle" class="label">1</text>
<text x="466.0" y="447" text-anchor="end" transform="rotate(-38 466.0 447)" class="small">MLH1-p.Lys618del</text>
<rect x="541.3" y="380.9" width="61.5" height="44.1" rx="3" fill="#287d8e"/>
<text x="572.0" y="372.9" text-anchor="middle" class="label">1</text>
<text x="572.0" y="447" text-anchor="end" transform="rotate(-38 572.0 447)" class="small">MUTYH-p.Gly396Asp</text>
<rect x="647.3" y="125.0" width="61.5" height="300.0" rx="3" fill="#c75b39"/>
<text x="678.0" y="117.0" text-anchor="middle" class="label">111</text>
<text x="678.0" y="447" text-anchor="end" transform="rotate(-38 678.0 447)" class="small">BRAF-V600E</text>
<rect x="753.3" y="177.6" width="61.5" height="247.4" rx="3" fill="#c75b39"/>
<text x="784.0" y="169.6" text-anchor="middle" class="label">48</text>
<text x="784.0" y="447" text-anchor="end" transform="rotate(-38 784.0 447)" class="small">EGFR-L858R</text>
<rect x="859.3" y="237.8" width="61.5" height="187.2" rx="3" fill="#c75b39"/>
<text x="890.0" y="229.8" text-anchor="middle" class="label">18</text>
<text x="890.0" y="447" text-anchor="end" transform="rotate(-38 890.0 447)" class="small">KRAS-G12C</text>
<rect x="965.3" y="322.7" width="61.5" height="102.3" rx="3" fill="#c75b39"/>
<text x="996.0" y="314.7" text-anchor="middle" class="label">4</text>
<text x="996.0" y="447" text-anchor="end" transform="rotate(-38 996.0 447)" class="small">IDH1-R132H</text>
<rect x="1071.3" y="206.7" width="61.5" height="218.3" rx="3" fill="#c75b39"/>
<text x="1102.0" y="198.7" text-anchor="middle" class="label">30</text>
<text x="1102.0" y="447" text-anchor="end" transform="rotate(-38 1102.0 447)" class="small">PIK3CA-H1047R</text>
<rect x="925" y="28" width="12" height="12" fill="#287d8e"/><text x="943" y="39" class="small">no audit flag</text>
<rect x="1030" y="28" width="12" height="12" fill="#c75b39"/><text x="1048" y="39" class="small">manual review flag</text>
<text x="42" y="598" class="small">Counts describe source records, not evidence strength or clinical validity.</text>
</svg>
